<svg width="27" height="26" viewBox="0 0 27 26" fill="none" xmlns="http://www.w3.org/2000/svg">
<path d="M25.918 10.4699H24.8776V10.4163H13.2526V15.583H20.5525C19.4875 18.5907 16.6258 20.7497 13.2526 20.7497C8.97267 20.7497 5.5026 17.2796 5.5026 12.9997C5.5026 8.71974 8.97267 5.24967 13.2526 5.24967C15.2282 5.24967 17.0256 5.99497 18.3941 7.21236L22.0476 3.55888C19.7406 1.4089 16.6549 0.0830078 13.2526 0.0830078C6.11938 0.0830078 0.335938 5.86645 0.335938 12.9997C0.335938 20.1329 6.11938 25.9163 13.2526 25.9163C20.3858 25.9163 26.1693 20.1329 26.1693 12.9997C26.1693 12.1336 26.0801 11.2882 25.918 10.4699Z" fill="#FBC02D"/>
</svg>
