<svg width="16" height="21" viewBox="0 0 16 21" fill="none" xmlns="http://www.w3.org/2000/svg">
<path d="M7.56635 19.6641C5.52728 17.1562 0.992126 11.0781 0.992126 7.66406C0.992126 3.52187 4.34994 0.164062 8.49213 0.164062C12.6328 0.164062 15.9921 3.52187 15.9921 7.66406C15.9921 11.0781 11.4218 17.1562 9.41791 19.6641C8.93744 20.2617 8.04681 20.2617 7.56635 19.6641ZM8.49213 10.1641C9.87103 10.1641 10.9921 9.04297 10.9921 7.66406C10.9921 6.28516 9.87103 5.16406 8.49213 5.16406C7.11322 5.16406 5.99213 6.28516 5.99213 7.66406C5.99213 9.04297 7.11322 10.1641 8.49213 10.1641Z" fill="#00A088"/>
</svg>
