<svg width="71" height="71" viewBox="0 0 71 71" fill="none" xmlns="http://www.w3.org/2000/svg">
<path fill-rule="evenodd" clip-rule="evenodd" d="M38.9155 0.537686C33.0223 -0.135193 28.6508 4.85643 28.6508 10.1427V12.3417C28.6508 18.1865 25.8054 21.6828 22.8544 23.8378C21.4119 24.8933 19.9518 25.6101 18.8171 26.0719C18.1405 24.9054 17.1693 23.9371 16.0007 23.264C14.8321 22.591 13.5072 22.2368 12.1587 22.2369H7.76079C5.71959 22.2369 3.762 23.0478 2.31866 24.4911C0.875314 25.9345 0.0644531 27.8921 0.0644531 29.9333L0.0644531 62.9176C0.0644531 67.1659 3.51241 70.6139 7.76079 70.6139H12.1587C13.7778 70.6142 15.3557 70.1039 16.668 69.1556C17.9803 68.2073 18.9601 66.8693 19.468 65.332C21.7769 65.6618 24.1606 66.3391 27.0544 67.1571C27.7229 67.3462 28.4177 67.5442 29.1434 67.7421C34.2186 69.1494 40.3141 70.6139 48.4414 70.6139C55.9442 70.6139 61.5032 69.941 64.8104 65.6003C66.3629 63.564 67.1721 61.0177 67.7482 58.247C68.2672 55.7842 68.663 52.7804 69.1247 49.306L69.3007 47.9603C70.4001 39.7406 70.4661 33.368 68.4738 28.9789C67.4788 26.6869 65.7085 24.8185 63.4734 23.7014C61.3009 22.6108 58.7897 22.2369 56.1377 22.2369H49.8839L49.9499 21.74C50.2577 19.4619 50.6403 16.5944 50.6403 14.5406C50.6403 10.4857 49.9763 6.98062 47.7553 4.42543C45.5124 1.83507 42.2711 0.920304 38.9155 0.537686ZM19.855 58.7395C22.9555 59.1266 25.9681 59.9885 28.9675 60.8417L30.907 61.3915C35.7271 62.7328 41.1717 64.0214 48.4414 64.0214C56.3312 64.0214 58.4686 63.0407 59.5593 61.607C60.2058 60.7582 60.7731 59.386 61.2921 56.9012C61.7539 54.6935 62.1189 51.958 62.5895 48.4133L62.7654 47.0939C63.8648 38.817 63.5966 34.1948 62.4663 31.7144C62.0973 30.7973 61.4061 30.0466 60.5224 29.6034C59.6077 29.1461 58.2355 28.8382 56.1377 28.8382H48.4414C45.4244 28.8382 42.7461 26.3006 43.1375 22.9626C43.2387 22.1182 43.3574 21.2474 43.4718 20.3854C43.7576 18.2393 44.0435 16.1195 44.0435 14.545C44.0435 10.9871 43.4102 9.48742 42.7769 8.75737C42.1744 8.0625 41.0089 7.42041 38.1679 7.09496C36.8177 6.93664 35.2477 8.13287 35.2477 10.1427V12.3417C35.2477 20.7944 30.9465 26.0983 26.7465 29.1636C24.6422 30.6919 22.3188 31.893 19.855 32.7259V58.7395ZM12.1587 28.8338C12.4503 28.8338 12.7299 28.9496 12.9361 29.1558C13.1423 29.362 13.2582 29.6417 13.2582 29.9333V62.9176C13.2582 63.2092 13.1423 63.4888 12.9361 63.695C12.7299 63.9012 12.4503 64.017 12.1587 64.017H7.76079C7.46919 64.017 7.18953 63.9012 6.98334 63.695C6.77715 63.4888 6.66131 63.2092 6.66131 62.9176V29.9333C6.66131 29.6417 6.77715 29.362 6.98334 29.1558C7.18953 28.9496 7.46919 28.8338 7.76079 28.8338H12.1587Z" fill="#063831"/>
</svg>
