<svg width="66" height="66" viewBox="0 0 66 66" fill="none" xmlns="http://www.w3.org/2000/svg">
<g clip-path="url(#clip0_1483_961)">
<path d="M32.834 61.6357C25.2919 61.6357 18.0587 58.6397 12.7256 53.3066C7.39257 47.9735 4.39648 40.7403 4.39648 33.1982C4.39648 25.6561 7.39257 18.423 12.7256 13.0899C18.0587 7.75683 25.2919 4.76074 32.834 4.76074C40.3761 4.76074 47.6093 7.75683 52.9423 13.0899C58.2754 18.423 61.2715 25.6561 61.2715 33.1982C61.2715 40.7403 58.2754 47.9735 52.9423 53.3066C47.6093 58.6397 40.3761 61.6357 32.834 61.6357ZM32.834 65.6982C41.4535 65.6982 49.72 62.2741 55.815 56.1792C61.9099 50.0843 65.334 41.8178 65.334 33.1982C65.334 24.5787 61.9099 16.3122 55.815 10.2173C49.72 4.12234 41.4535 0.698242 32.834 0.698242C24.2144 0.698242 15.9479 4.12234 9.85301 10.2173C3.75808 16.3122 0.333984 24.5787 0.333984 33.1982C0.333984 41.8178 3.75808 50.0843 9.85301 56.1792C15.9479 62.2741 24.2144 65.6982 32.834 65.6982Z" fill="#387A70"/>
<path d="M17.7416 39.5642C18.2082 39.2948 18.7626 39.2218 19.283 39.3613C19.8033 39.5007 20.247 39.8411 20.5163 40.3076C21.764 42.4702 23.5594 44.266 25.7217 45.5141C27.8841 46.7621 30.3371 47.4185 32.8338 47.417C35.3305 47.4185 37.7836 46.7621 39.9459 45.5141C42.1083 44.266 43.9037 42.4702 45.1513 40.3076C45.2837 40.0747 45.4609 39.8704 45.6726 39.7062C45.8843 39.5421 46.1264 39.4215 46.3849 39.3513C46.6434 39.2811 46.9133 39.2627 47.1789 39.2973C47.4446 39.3318 47.7008 39.4185 47.9328 39.5525C48.1648 39.6864 48.368 39.8649 48.5307 40.0777C48.6934 40.2905 48.8124 40.5334 48.8809 40.7924C48.9494 41.0514 48.9659 41.3213 48.9297 41.5867C48.8934 41.8522 48.8049 42.1078 48.6695 42.3389C47.0653 45.1191 44.7571 47.4276 41.9771 49.0323C39.1972 50.6369 36.0436 51.4809 32.8338 51.4795C29.624 51.4809 26.4705 50.6369 23.6905 49.0323C20.9106 47.4276 18.6024 45.1191 16.9982 42.3389C16.7289 41.8723 16.6559 41.3179 16.7953 40.7976C16.9347 40.2772 17.2751 39.8335 17.7416 39.5642ZM28.7713 27.1045C28.7713 30.4682 26.9513 33.1982 24.7088 33.1982C22.4663 33.1982 20.6463 30.4682 20.6463 27.1045C20.6463 23.7407 22.4663 21.0107 24.7088 21.0107C26.9513 21.0107 28.7713 23.7407 28.7713 27.1045ZM45.0213 27.1045C45.0213 30.4682 43.2013 33.1982 40.9588 33.1982C38.7163 33.1982 36.8963 30.4682 36.8963 27.1045C36.8963 23.7407 38.7163 21.0107 40.9588 21.0107C43.2013 21.0107 45.0213 23.7407 45.0213 27.1045Z" fill="#387A70"/>
</g>
<defs>
<clipPath id="clip0_1483_961">
<rect width="65" height="65" fill="white" transform="translate(0.333984 0.698242)"/>
</clipPath>
</defs>
</svg>
