<svg width="66" height="66" viewBox="0 0 66 66" fill="none" xmlns="http://www.w3.org/2000/svg">
<g clip-path="url(#clip0_1483_957)">
<path d="M33.1069 61.6357C25.5648 61.6357 18.3316 58.6397 12.9986 53.3066C7.66552 47.9735 4.66943 40.7403 4.66943 33.1982C4.66943 25.6561 7.66552 18.423 12.9986 13.0899C18.3316 7.75683 25.5648 4.76074 33.1069 4.76074C40.649 4.76074 47.8822 7.75683 53.2153 13.0899C58.5483 18.423 61.5444 25.6561 61.5444 33.1982C61.5444 40.7403 58.5483 47.9735 53.2153 53.3066C47.8822 58.6397 40.649 61.6357 33.1069 61.6357ZM33.1069 65.6982C41.7265 65.6982 49.993 62.2741 56.0879 56.1792C62.1828 50.0843 65.6069 41.8178 65.6069 33.1982C65.6069 24.5787 62.1828 16.3122 56.0879 10.2173C49.993 4.12234 41.7265 0.698242 33.1069 0.698242C24.4874 0.698242 16.2209 4.12234 10.126 10.2173C4.03103 16.3122 0.606934 24.5787 0.606934 33.1982C0.606934 41.8178 4.03103 50.0843 10.126 56.1792C16.2209 62.2741 24.4874 65.6982 33.1069 65.6982Z" fill="#387A70"/>
<path d="M16.8569 43.3545C16.8569 43.8932 17.0709 44.4099 17.4519 44.7908C17.8328 45.1717 18.3495 45.3857 18.8882 45.3857H47.3257C47.8644 45.3857 48.3811 45.1717 48.762 44.7908C49.1429 44.4099 49.3569 43.8932 49.3569 43.3545C49.3569 42.8158 49.1429 42.2991 48.762 41.9182C48.3811 41.5372 47.8644 41.3232 47.3257 41.3232H18.8882C18.3495 41.3232 17.8328 41.5372 17.4519 41.9182C17.0709 42.2991 16.8569 42.8158 16.8569 43.3545ZM29.0444 27.1045C29.0444 23.7407 27.2244 21.0107 24.9819 21.0107C22.7394 21.0107 20.9194 23.7407 20.9194 27.1045C20.9194 30.4682 22.7394 33.1982 24.9819 33.1982C27.2244 33.1982 29.0444 30.4682 29.0444 27.1045ZM45.2944 27.1045C45.2944 23.7407 43.4744 21.0107 41.2319 21.0107C38.9894 21.0107 37.1694 23.7407 37.1694 27.1045C37.1694 30.4682 38.9894 33.1982 41.2319 33.1982C43.4744 33.1982 45.2944 30.4682 45.2944 27.1045Z" fill="#387A70"/>
</g>
<defs>
<clipPath id="clip0_1483_957">
<rect width="65" height="65" fill="white" transform="translate(0.606934 0.698242)"/>
</clipPath>
</defs>
</svg>
