<svg width="66" height="66" viewBox="0 0 66 66" fill="currentColor" xmlns="http://www.w3.org/2000/svg">
<g clip-path="url(#clip0_1483_933)">
<path d="M33.0288 61.6372C25.4867 61.6372 18.2535 58.6411 12.9205 53.3081C7.58739 47.975 4.59131 40.7418 4.59131 33.1997C4.59131 25.6576 7.58739 18.4244 12.9205 13.0914C18.2535 7.75829 25.4867 4.76221 33.0288 4.76221C40.5709 4.76221 47.8041 7.75829 53.1372 13.0914C58.4702 18.4244 61.4663 25.6576 61.4663 33.1997C61.4663 40.7418 58.4702 47.975 53.1372 53.3081C47.8041 58.6411 40.5709 61.6372 33.0288 61.6372ZM33.0288 65.6997C41.6483 65.6997 49.9148 62.2756 56.0098 56.1807C62.1047 50.0857 65.5288 41.8192 65.5288 33.1997C65.5288 24.5802 62.1047 16.3137 56.0098 10.2187C49.9148 4.1238 41.6483 0.699707 33.0288 0.699707C24.4093 0.699707 16.1428 4.1238 10.0478 10.2187C3.95291 16.3137 0.528809 24.5802 0.528809 33.1997C0.528809 41.8192 3.95291 50.0857 10.0478 56.1807C16.1428 62.2756 24.4093 65.6997 33.0288 65.6997Z" fill="#387A70"/>
<path d="M46.4962 41.3818C46.8818 41.291 47.2856 41.315 47.6578 41.4507C48.03 41.5865 48.3543 41.8281 48.5909 42.1459C48.8275 42.4637 48.9661 42.8437 48.9894 43.2392C49.0128 43.6347 48.92 44.0284 48.7224 44.3718C47.1183 47.152 44.81 49.4606 42.0301 51.0652C39.2502 52.6698 36.0966 53.5139 32.8868 53.5124C29.677 53.5139 26.5234 52.6698 23.7435 51.0652C20.9636 49.4606 18.6554 47.152 17.0512 44.3718C16.8536 44.0284 16.7608 43.6347 16.7842 43.2392C16.8076 42.8437 16.9461 42.4637 17.1827 42.1459C17.4193 41.8281 17.7436 41.5865 18.1158 41.4507C18.488 41.315 18.8918 41.291 19.2774 41.3818H19.2978L19.3668 41.4021L19.639 41.4631L20.6628 41.6865C21.5362 41.8734 22.7549 42.1252 24.1443 42.3731C26.9596 42.8768 30.3274 43.3562 32.8868 43.3562C35.4462 43.3562 38.8181 42.8768 41.6293 42.3731C43.1374 42.1017 44.6395 41.7983 46.1346 41.4631L46.4068 41.4021L46.4759 41.3859L46.4962 41.3777V41.3818ZM19.8503 19.2493C22.9499 13.4643 36.1815 18.7618 23.7178 33.1999C5.45275 26.7162 14.1709 15.7393 19.8503 19.2493ZM46.2078 19.2493C51.8871 15.7393 60.6052 26.7162 42.3403 33.1999C29.8806 18.7618 43.1121 13.4643 46.2078 19.2493Z" fill="#387A70"/>
</g>
<defs>
<clipPath id="clip0_1483_933">
<rect width="65" height="65" fill="white" transform="translate(0.528809 0.699707)"/>
</clipPath>
</defs>
</svg>
