<svg width="66" height="66" viewBox="0 0 66 66" fill="none" xmlns="http://www.w3.org/2000/svg">
<g clip-path="url(#clip0_1483_955)">
<path d="M20.415 28.1294C18.9551 28.1294 17.8887 28.6118 17.1904 29.3608C16.2383 30.3765 14.626 30.4272 13.4961 29.4751C12.5808 28.5103 12.5287 26.9106 13.4834 25.8823C15.3369 23.9146 17.9648 23.0513 20.415 23.0513C22.7637 23.0513 25.5059 23.9146 27.3467 25.8823C28.3115 26.9106 28.2607 28.5103 27.2324 29.4751C26.2041 30.4272 24.6045 30.3765 23.6396 29.3608C22.9541 28.6118 21.7734 28.1294 20.415 28.1294ZM37.9727 29.4751C36.957 28.5103 36.9062 26.9106 37.8584 25.8823C39.7119 23.9146 42.3398 23.0513 44.79 23.0513C47.1387 23.0513 49.8809 23.9146 51.7217 25.8823C52.6865 26.9106 52.6357 28.5103 51.6074 29.4751C50.5791 30.4272 48.9795 30.3765 48.0146 29.3608C47.3291 28.6118 46.1484 28.1294 44.79 28.1294C43.3301 28.1294 42.2637 28.6118 41.5654 29.3608C40.6133 30.3765 39.001 30.4272 37.9727 29.4751ZM26.5596 40.8247C26.5596 37.4604 29.2891 34.731 32.6533 34.731C36.0176 34.731 38.7471 37.4604 38.7471 40.8247V44.8872C38.7471 48.2515 36.0176 50.981 32.6533 50.981C29.2891 50.981 26.5596 48.2515 26.5596 44.8872V40.8247ZM0.15332 32.6997C0.15332 14.7485 14.7021 0.199707 32.6533 0.199707C50.6045 0.199707 65.1533 14.7485 65.1533 32.6997C65.1533 50.6509 50.6045 65.1997 32.6533 65.1997C14.7021 65.1997 0.15332 50.6509 0.15332 32.6997ZM50.9346 51.7554C55.9365 46.9438 59.0596 40.0757 59.0596 32.6997C59.0596 18.1128 47.2402 6.29346 32.6533 6.29346C18.0664 6.29346 6.24707 18.1128 6.24707 32.6997C6.24707 40.0757 9.36377 46.9438 14.3721 51.7554V36.7622C14.3721 35.0737 15.7305 33.7153 17.4189 33.7153C19.1074 33.7153 20.4658 35.0737 20.4658 36.7622V56.1353C24.1094 58.0269 28.2607 59.106 32.6533 59.106C37.0459 59.106 41.1973 58.0269 44.8408 56.1353V36.7622C44.8408 35.0737 46.1992 33.7153 47.8877 33.7153C49.5762 33.7153 50.9346 35.0737 50.9346 36.7622V51.7554Z" fill="#387A70"/>
</g>
<defs>
<clipPath id="clip0_1483_955">
<rect width="65" height="65" fill="white" transform="translate(0.15332 0.199707)"/>
</clipPath>
</defs>
</svg>
