<svg width="16" height="16" viewBox="0 0 16 16" fill="none" xmlns="http://www.w3.org/2000/svg">
<path d="M1.37192 15.3116C1.25631 15.3114 1.142 15.2872 1.03626 15.2404C0.930528 15.1936 0.835682 15.1254 0.757757 15.04C0.678422 14.9553 0.617885 14.8548 0.580114 14.7451C0.542343 14.6354 0.528193 14.5189 0.53859 14.4033L0.742757 12.1583L10.1744 2.72998L13.1219 5.67664L3.69276 15.1041L1.44776 15.3083C1.42255 15.3106 1.39724 15.3117 1.37192 15.3116ZM13.7103 5.08748L10.7636 2.14081L12.5311 0.373312C12.6085 0.295832 12.7004 0.234366 12.8016 0.192429C12.9027 0.150492 13.0112 0.128906 13.1207 0.128906C13.2302 0.128906 13.3386 0.150492 13.4398 0.192429C13.541 0.234366 13.6329 0.295832 13.7103 0.373312L15.4778 2.14081C15.5552 2.21821 15.6167 2.31011 15.6586 2.41128C15.7006 2.51244 15.7222 2.62088 15.7222 2.7304C15.7222 2.83991 15.7006 2.94835 15.6586 3.04951C15.6167 3.15068 15.5552 3.24258 15.4778 3.31998L13.7111 5.08664L13.7103 5.08748Z" fill="#063831"/>
</svg>
