<svg width="86" height="86" viewBox="0 0 86 86" fill="none" xmlns="http://www.w3.org/2000/svg">
<path d="M75.3355 69.9546C79.6983 64.7055 82.7327 58.4828 84.1819 51.8129C85.6311 45.143 85.4526 38.2223 83.6614 31.636C81.8702 25.0497 78.5191 18.9917 73.8915 13.9745C69.2639 8.95731 63.496 5.12845 57.0756 2.81185C50.6553 0.495248 43.7715 -0.240938 37.0064 0.665566C30.2414 1.57207 23.7942 4.0946 18.2103 8.01975C12.6264 11.9449 8.06994 17.1572 4.92647 23.2158C1.78301 29.2743 0.144978 36.0008 0.150956 42.8263C0.15325 52.7486 3.64982 62.3531 10.0271 69.9546L9.96636 70.0062C10.179 70.2614 10.422 70.4801 10.6408 70.7323C10.9142 71.0452 11.2089 71.3399 11.4914 71.6437C12.342 72.5672 13.2169 73.4542 14.1343 74.2866C14.4138 74.5418 14.7024 74.7787 14.9849 75.0218C15.9571 75.8602 16.9565 76.6562 17.9924 77.3974C18.1261 77.4885 18.2476 77.607 18.3813 77.7012V77.6647C25.4963 82.6717 33.9842 85.3588 42.6844 85.3588C51.3846 85.3588 59.8724 82.6717 66.9874 77.6647V77.7012C67.1211 77.607 67.2396 77.4885 67.3763 77.3974C68.4092 76.6531 69.4117 75.8602 70.3838 75.0218C70.6663 74.7787 70.9549 74.5388 71.2344 74.2866C72.1518 73.4512 73.0268 72.5672 73.8774 71.6437C74.1599 71.3399 74.4515 71.0452 74.728 70.7323C74.9437 70.4801 75.1897 70.2614 75.4024 70.0032L75.3355 69.9546ZM42.6813 18.5232C45.3851 18.5232 48.0281 19.325 50.2762 20.8271C52.5243 22.3292 54.2765 24.4643 55.3112 26.9622C56.3459 29.4602 56.6166 32.2089 56.0891 34.8607C55.5617 37.5125 54.2597 39.9483 52.3478 41.8602C50.436 43.772 48.0001 45.074 45.3483 45.6015C42.6965 46.129 39.9478 45.8583 37.4499 44.8236C34.9519 43.7889 32.8169 42.0367 31.3147 39.7886C29.8126 37.5405 29.0109 34.8975 29.0109 32.1937C29.0109 28.5681 30.4511 25.0909 33.0148 22.5272C35.5786 19.9635 39.0557 18.5232 42.6813 18.5232ZM18.3995 69.9546C18.4522 65.9658 20.0732 62.158 22.9119 59.3552C25.7505 56.5524 29.5785 54.9799 33.5677 54.9778H51.795C55.7842 54.9799 59.6122 56.5524 62.4508 59.3552C65.2894 62.158 66.9104 65.9658 66.9631 69.9546C60.3006 75.9585 51.65 79.2811 42.6813 79.2811C33.7127 79.2811 25.0621 75.9585 18.3995 69.9546Z" fill="#387A70" fill-opacity="0.24"/>
</svg>
