 <svg
          className="profileIcon"
          width="23"
          height="26"
          viewBox="0 0 23 26"
          fill="none"
          xmlns="http://www.w3.org/2000/svg">
          <path
            d="M3.93005 25.7068H20.1801C20.8431 25.7068 21.479 25.4434 21.9478 24.9746C22.4167 24.5057 22.6801 23.8698 22.6801 23.2068V3.20679C22.6801 2.54375 22.4167 1.90786 21.9478 1.43902C21.479 0.970179 20.8431 0.706787 20.1801 0.706787H2.68005C2.01701 0.706787 1.38113 0.970179 0.912287 1.43902C0.443446 1.90786 0.180054 2.54375 0.180054 3.20679V23.2068C0.180054 23.8698 0.443446 24.5057 0.912287 24.9746C1.38113 25.4434 2.01701 25.7068 2.68005 25.7068H3.93005ZM11.4301 4.45554C13.4888 4.45554 15.1801 6.14429 15.1801 8.20554C15.1801 10.2655 13.4888 11.9568 11.4301 11.9568C9.3713 11.9568 7.68005 10.2655 7.68005 8.20554C7.68005 6.14429 9.3713 4.45554 11.4301 4.45554ZM3.93005 19.7693C3.93005 16.9955 7.3113 14.1443 11.4301 14.1443C15.5488 14.1443 18.9301 16.9955 18.9301 19.7693V20.7068H3.93005V19.7693Z"
            fill="#387A70"
            fill-opacity="0.6"
          />
        </svg>