<svg width="34" height="33" viewBox="0 0 34 33" fill="none" xmlns="http://www.w3.org/2000/svg">
<path d="M22.3046 10.684L22.421 10.9198L22.6812 10.9576L32.5976 12.3988C32.5978 12.3989 32.5981 12.3989 32.5983 12.3989C33.0131 12.461 33.2938 12.8425 33.2316 13.246L33.2315 13.246L33.2307 13.2515C33.2075 13.4139 33.1309 13.5638 33.0127 13.6797C33.0126 13.6798 33.0125 13.6799 33.0125 13.68L25.8376 20.6751L25.6494 20.8587L25.6939 21.1177L27.3892 30.9966L27.3892 30.997C27.4593 31.4033 27.1863 31.7903 26.7775 31.8607L26.7768 31.8609C26.6145 31.8891 26.4463 31.8626 26.3044 31.7871L26.3022 31.7859L17.4311 27.1218L17.1984 26.9995L16.9657 27.1218L8.0946 31.7859L8.09383 31.7863C7.97022 31.8516 7.83079 31.8809 7.69136 31.871C7.55193 31.861 7.41807 31.8122 7.30497 31.7301C7.19187 31.6479 7.10405 31.5357 7.05146 31.4062C6.99888 31.2767 6.98364 31.135 7.00746 30.9973L7.00758 30.9966L8.70289 21.1177L8.74735 20.8587L8.55914 20.6751L1.38336 13.6791L1.38332 13.679C1.24061 13.5399 1.15896 13.3498 1.15632 13.1505C1.15368 12.9515 1.23005 12.7596 1.36867 12.6168C1.48454 12.4989 1.63422 12.4224 1.79643 12.3992L1.79763 12.3991L11.7156 10.9576L11.9758 10.9198L12.0921 10.684L16.5245 1.69817C16.5247 1.69782 16.5248 1.69747 16.525 1.69712C16.7116 1.32528 17.1631 1.17453 17.5317 1.3565L17.5323 1.35679C17.6794 1.42915 17.7985 1.54825 17.8708 1.69532L17.8711 1.69575L22.3046 10.684Z" fill="#00A088" stroke="#00A088"/>
</svg>
