<svg
          width="21"
          height="21"
          viewBox="0 0 21 21"
          fill="none"
          xmlns="http://www.w3.org/2000/svg">
          <path
            d="M18.272 7.27735L13.313 6.55665L11.0962 2.06251C11.0357 1.93946 10.936 1.83985 10.813 1.7793C10.5044 1.62696 10.1294 1.75391 9.9751 2.06251L7.75831 6.55665L2.79932 7.27735C2.6626 7.29688 2.5376 7.36134 2.4419 7.45899C2.3262 7.57791 2.26245 7.7379 2.26464 7.9038C2.26684 8.0697 2.33481 8.22794 2.45362 8.34376L6.04151 11.8418L5.19385 16.7813C5.17398 16.8962 5.18669 17.0143 5.23056 17.1224C5.27442 17.2304 5.34768 17.324 5.44203 17.3925C5.53638 17.4611 5.64805 17.5018 5.76436 17.5101C5.88067 17.5184 5.99699 17.4939 6.1001 17.4395L10.5357 15.1074L14.9712 17.4395C15.0923 17.5039 15.2329 17.5254 15.3677 17.502C15.7075 17.4434 15.936 17.1211 15.8774 16.7813L15.0298 11.8418L18.6177 8.34376C18.7153 8.24805 18.7798 8.12305 18.7993 7.98634C18.8521 7.64454 18.6138 7.32813 18.272 7.27735Z"
            fill="#387A70"
          />
        </svg>