<svg width="28" height="25" viewBox="0 0 28 25" fill="none" xmlns="http://www.w3.org/2000/svg">
<path d="M26.2525 8.68927L18.3181 7.57218L14.7712 0.606261C14.6743 0.415539 14.515 0.261144 14.3181 0.167296C13.8243 -0.0688365 13.2243 0.127941 12.9775 0.606261L9.43058 7.57218L1.4962 8.68927C1.27745 8.71954 1.07745 8.81944 0.924326 8.97081C0.739207 9.15514 0.637197 9.40312 0.640713 9.66026C0.644229 9.91741 0.752982 10.1627 0.943076 10.3422L6.6837 15.7642L5.32745 23.4203C5.29565 23.5984 5.31599 23.7816 5.38618 23.9491C5.45636 24.1165 5.57358 24.2616 5.72454 24.3678C5.8755 24.474 6.05416 24.5371 6.24026 24.55C6.42636 24.5628 6.61246 24.5249 6.77745 24.4405L13.8743 20.8259L20.9712 24.4405C21.165 24.5404 21.39 24.5737 21.6056 24.5374C22.1493 24.4466 22.515 23.9471 22.4212 23.4203L21.065 15.7642L26.8056 10.3422C26.9618 10.1939 27.065 10.0001 27.0962 9.78819C27.1806 9.25841 26.7993 8.76798 26.2525 8.68927Z" fill="#00A088"/>
</svg>
